<svg width="51" height="31" viewBox="0 0 51 31" fill="none" xmlns="http://www.w3.org/2000/svg">
<g opacity="0.4">
<path d="M22.2459 8.31002C22.0666 8.64914 21.7977 8.96941 21.4391 9.30853C21.0805 9.64765 20.7399 9.98677 20.3992 10.3636C20.0406 10.778 19.6462 11.2679 19.2159 11.8331C18.7856 12.3983 18.3912 12.9635 18.0326 13.5098L16.7058 15.4692C15.3074 17.5227 14.0882 19.0865 13.0124 20.1792C11.9188 21.3096 10.861 22.1197 9.80315 22.6472L9.39078 22.911L8.99634 23.0994C7.83096 23.7023 6.64764 24.0037 5.41054 24.0037C4.56788 24.0037 3.81486 23.8341 3.15148 23.5139C2.47018 23.1747 1.95024 22.7226 1.57373 22.1197C1.17929 21.5357 1 20.8763 1 20.1603C1 19.6517 1.10757 19.1618 1.30479 18.6908C1.48408 18.2387 1.77095 17.8242 2.12953 17.5039C2.47018 17.1836 2.86462 16.9952 3.27699 16.901L3.29491 17.1083C2.72119 17.2025 2.2371 17.5604 1.84266 18.1633C1.44823 18.7662 1.23308 19.4444 1.23308 20.1792C1.23308 20.669 1.34065 21.1212 1.53787 21.5733C1.73509 22.0067 2.03988 22.3835 2.41639 22.7226C2.7929 23.0429 3.24113 23.2878 3.74314 23.4762C4.24515 23.6646 4.78302 23.7399 5.35675 23.7399C6.57593 23.7399 7.70545 23.4762 8.7812 22.9487L9.0322 22.8356L9.73143 22.4588C10.5562 22.0443 11.5064 21.2342 12.5642 20.0473C13.0662 19.4821 13.4607 19.0111 13.7296 18.6531C13.9806 18.314 14.4647 17.6546 15.1819 16.6184C16.0783 15.2808 16.8134 14.2446 17.4051 13.4533C17.9609 12.6997 18.5167 12.0215 19.0366 11.4186C19.8434 10.5331 20.4888 9.85489 20.9909 9.42157C21.206 9.21433 21.3853 9.06361 21.4929 8.96941C21.5646 8.89405 21.6542 8.8187 21.7439 8.74334C21.8335 8.66798 21.9232 8.59262 22.0128 8.51726L22.2459 8.31002ZM29.0051 8.04626C30.7622 7.42454 32.1248 7.08542 33.075 7.06658C34.0253 7.04774 34.6348 7.1231 34.8859 7.33034C35.1548 7.53758 35.2086 7.7825 35.0472 8.0651C35.0472 8.32886 34.8321 8.5361 34.4018 8.68682C33.9715 8.85637 33.3798 8.95057 32.6447 8.95057C32.071 8.95057 31.4614 8.9129 30.8339 8.8187L30.1705 8.74334C30.045 8.70566 29.8837 8.68682 29.6685 8.64914C29.6147 8.64914 29.543 8.6303 29.4892 8.6303C29.4354 8.6303 29.3637 8.61146 29.292 8.59262C29.2203 8.57378 29.1665 8.55494 29.1127 8.55494L21.3315 7.3115C20.0227 7.04774 18.8214 6.9347 17.7278 6.9347C14.8053 6.9347 12.1698 7.74482 9.85694 9.38389C8.6019 10.2694 7.59788 11.3432 6.82693 12.5678C6.07391 13.7736 5.67947 14.9605 5.67947 16.1286C5.67947 16.675 5.78705 17.1271 6.02013 17.5228C6.2532 17.9184 6.57593 18.2387 6.98829 18.4459C7.40066 18.6531 7.88474 18.7662 8.44054 18.7662H8.87084C8.92463 17.73 9.17563 16.6938 9.62386 15.6764C10.0542 14.6779 10.6637 13.7171 11.4526 12.8128C12.2594 11.8896 13.1021 11.1548 13.9985 10.5897C14.9129 10.0245 15.6839 9.74185 16.3114 9.74185C17.1182 9.74185 17.5306 10.1563 17.5306 10.9476C17.5306 11.6635 17.154 12.5678 16.419 13.6794C15.6839 14.7533 14.7157 15.7895 13.5324 16.788C13.0842 17.1836 12.6001 17.5227 12.0801 17.8242C11.5423 18.1256 11.0403 18.3705 10.5562 18.5589C10.0183 18.7662 9.53421 18.8792 9.12185 18.9357V18.9923C9.12185 19.5763 9.22942 20.1792 9.42664 20.7632C9.64179 21.3473 9.91072 21.7994 10.2334 22.1385C11.0044 22.8168 11.8112 23.1559 12.6897 23.1747C13.1738 23.1747 13.5862 23.1182 13.9448 22.9863C14.2495 22.8545 14.6261 22.6284 15.0922 22.2704L15.2356 22.44C14.5364 23.0805 13.6937 23.4008 12.6897 23.4008C11.7036 23.4008 10.7892 22.9675 9.92865 22.1197C9.28321 21.4038 8.92463 20.3487 8.88877 18.9546H8.44054C7.54409 18.9546 6.82693 18.6908 6.30699 18.1821C5.78705 17.6735 5.51811 16.9764 5.51811 16.1098C5.51811 15.3185 5.6974 14.4895 6.03805 13.6417C6.39664 12.8128 6.91658 12.0026 7.56202 11.2114C8.18954 10.4389 8.96049 9.76069 9.83901 9.13897C12.2953 7.4057 15.1998 6.53906 18.5346 6.53906C19.8434 6.5579 23.3575 7.06658 29.0051 8.04626ZM9.12185 18.672C10.5382 18.4459 11.9726 17.7488 13.4248 16.5431C14.1778 15.9025 14.8591 15.2431 15.4149 14.5649C16.0066 13.849 16.4548 13.1896 16.7775 12.5678C17.1003 11.9273 17.2616 11.3809 17.2616 10.9288C17.2616 10.6273 17.172 10.4013 17.0106 10.2129C16.8493 10.0621 16.6162 9.98677 16.3114 9.98677C15.7018 9.98677 14.9667 10.2694 14.0882 10.8346C13.2097 11.3998 12.4029 12.1157 11.6319 13.0012C10.8789 13.8678 10.2872 14.791 9.85694 15.7706C9.42664 16.7692 9.17563 17.73 9.12185 18.672ZM21.0267 13.8113L21.7797 12.6997C22.3355 11.9273 22.8017 11.249 23.1423 10.7027L23.3037 11.1172C23.0348 11.4563 22.7838 11.8331 22.5328 12.2476L21.1522 14.3576C21.0984 14.433 21.0267 14.5649 20.9012 14.7533C20.7757 14.9417 20.6681 15.1489 20.5247 15.3938C20.3813 15.6199 20.2378 15.8648 20.0765 16.1098C19.9151 16.3547 19.7717 16.5808 19.6462 16.7692L18.5884 18.314C17.9967 19.2372 17.423 20.1227 16.8851 20.9516C16.3114 21.7806 15.8811 22.4965 15.5763 23.0994L15.5046 22.1385C16.0783 21.4415 17.0644 19.9719 18.4449 17.73L21.0267 13.8113ZM28.2342 9.17665L28.3418 9.21433C28.1983 9.51577 27.8935 9.98677 27.3915 10.5897C27.3736 10.6085 27.3557 10.6462 27.3198 10.7027C27.2839 10.7592 27.2481 10.8157 27.1943 10.8534C27.1584 10.8911 27.1047 10.9664 27.0688 11.0418C26.9612 11.1925 26.7819 11.4374 26.5489 11.7766C26.4413 11.965 26.3337 12.1157 26.2441 12.2476C26.1544 12.3794 26.011 12.5678 25.8317 12.8504C25.7958 12.9258 25.7062 13.0388 25.5807 13.2272C25.4552 13.4156 25.3297 13.5852 25.2221 13.7359L23.9133 15.6388L22.5865 17.5604C22.2817 18.0126 21.8873 18.5966 21.4032 19.3125L20.4351 20.7632C19.682 21.8936 19.3235 22.5907 19.3235 22.8733C19.3235 23.0617 19.4131 23.1559 19.5745 23.1559C19.8075 23.1559 20.2378 22.8356 20.8295 22.2139C21.4212 21.611 22.0845 20.8197 22.8196 19.8401L22.9631 19.9908C21.2598 22.2516 20.1303 23.382 19.5386 23.382C19.2159 23.382 19.0725 23.1936 19.0725 22.8356C19.0725 22.4777 19.2517 21.969 19.6103 21.2719C19.951 20.6125 20.2916 20.0285 20.6502 19.4821C21.3494 18.3894 21.8694 17.617 22.228 17.146L23.6264 15.2431L24.9532 13.4722L26.3696 11.607C26.8178 11.0606 27.4274 10.2505 28.2342 9.17665ZM29.3099 8.14046L30.8518 8.3477L31.067 8.40422C31.9813 8.51726 32.6985 8.57378 33.2005 8.57378C34.2404 8.57378 34.8141 8.36654 34.9217 7.9709C35.0293 7.57526 34.6348 7.33034 33.7025 7.25498C32.7702 7.17962 31.318 7.48106 29.3099 8.14046Z" fill="white" stroke="white" stroke-width="0.5607" stroke-miterlimit="10"/>
<path d="M40.2825 10.8156L40.3183 10.8722L40.3542 10.8156L40.5514 10.6084C41.6809 9.36497 42.5953 8.46065 43.2766 7.89545C43.9579 7.33025 44.4779 6.97229 44.8364 6.80273C44.6572 7.04765 44.2986 7.61285 43.7786 8.49833C43.689 8.66789 43.5456 8.95049 43.3483 9.34613C43.2587 9.55337 43.0973 9.89249 42.8822 10.4012C42.667 10.9287 42.3981 11.6069 42.0754 12.4547C42.0037 12.6808 41.914 12.9257 41.8064 13.2083C41.6989 13.4909 41.6451 13.6605 41.6272 13.6793C41.5734 13.83 41.5196 13.9619 41.4658 14.075C41.412 14.188 41.3941 14.2634 41.3761 14.301L41.3403 14.3576L41.412 14.3387C41.7347 14.075 42.0216 13.8489 42.2726 13.6416C42.5236 13.4344 42.7746 13.2272 42.9898 13.0576L44.4062 11.8707C44.9082 11.4562 45.3205 11.0982 45.6253 10.8345C46.7011 9.89249 47.723 8.93165 48.7091 7.97081C49.247 7.46213 49.5876 7.10417 49.749 6.87809H50C49.749 7.19837 49.4083 7.68821 48.9781 8.34761C48.9601 8.36645 48.9422 8.42297 48.8884 8.47949C48.8346 8.53601 48.7988 8.59253 48.7629 8.64905C48.727 8.70557 48.6733 8.78093 48.6195 8.85629C48.494 9.02585 48.3147 9.28961 48.0637 9.66641C47.9382 9.85481 47.8306 10.0244 47.741 10.1562C47.6513 10.2881 47.4899 10.5142 47.2927 10.7968C47.2569 10.8722 47.1493 11.004 47.0238 11.2113C46.8804 11.4185 46.7549 11.5881 46.6473 11.7388L45.2488 13.7735L43.8324 15.8271C43.5097 16.2981 43.0973 16.9198 42.5595 17.6922L41.5196 19.2371C40.7128 20.4429 40.3183 21.1776 40.3183 21.4602C40.3183 21.6674 40.408 21.7805 40.5693 21.7805C40.8203 21.7805 41.2686 21.4414 41.9319 20.782C42.5774 20.1226 43.2766 19.2748 44.0655 18.2386L44.2269 18.3893C42.3981 20.8008 41.161 22.0066 40.5514 22.0066C40.2108 22.0066 40.0494 21.8182 40.0494 21.4225C40.0494 21.0646 40.2466 20.4994 40.6231 19.7458C40.9817 19.0487 41.3582 18.4081 41.7347 17.8429C42.4877 16.6749 43.0615 15.8459 43.438 15.3561L44.944 13.359L46.3604 11.4562L47.8665 9.47801C48.3326 8.85629 48.6912 8.36645 48.9243 8.00849C48.7988 8.15921 48.5298 8.44181 48.1354 8.81861C48.1175 8.83745 48.0278 8.91281 47.8665 9.04469C47.7051 9.17657 47.4182 9.45917 46.9879 9.85481C46.7011 10.1186 46.5218 10.2881 46.4501 10.3446C46.3783 10.4012 46.3066 10.4765 46.2349 10.5519C46.1094 10.6461 46.0198 10.7214 45.948 10.778L44.442 12.0591C43.2228 13.0953 42.3443 13.8489 41.7885 14.2822L41.1789 14.7344L41.1072 14.7909L41.0893 14.8662C40.659 15.8647 40.1928 16.7691 39.7267 17.5603C39.2605 18.3328 38.7406 19.1052 38.131 19.8588C37.7366 20.3675 37.378 20.782 37.0553 21.0646C36.7146 21.3848 36.4098 21.6298 36.1588 21.7805C35.8719 21.95 35.6209 22.0254 35.4237 22.0254C35.2444 22.0254 35.101 21.95 35.0113 21.8182C34.9038 21.6863 34.85 21.5167 34.85 21.3095C34.85 20.9704 35.0472 20.4994 35.4237 19.9153C35.8002 19.3501 36.3381 18.7096 37.0553 17.9937C37.7007 17.3343 38.4716 16.6372 39.404 15.8836L40.2287 15.243C40.2466 15.2242 40.2645 15.2054 40.3004 15.1677C40.3363 15.13 40.3901 15.1111 40.4438 15.0546L40.5335 14.8474C41.0893 13.5098 41.5375 12.4736 41.8961 11.72C42.3802 10.6461 42.8463 9.68525 43.3125 8.85629C43.8145 7.95197 44.0834 7.46213 44.1372 7.38677L43.94 7.57517C43.1511 8.21573 42.3622 8.93165 41.5734 9.72293C41.5196 9.77945 41.4479 9.85481 41.3761 9.94901C41.3044 10.0432 41.2327 10.0997 41.161 10.1939C41.0893 10.2881 40.9996 10.3823 40.91 10.4765C40.8203 10.5707 40.7307 10.6649 40.6411 10.778C40.6231 10.7968 40.5873 10.8156 40.5514 10.8722C40.5335 10.891 40.5335 10.9098 40.5156 10.9287C40.4976 10.9475 40.4976 10.9664 40.4618 10.9852C40.6948 11.3243 40.8203 11.7011 40.8203 12.1156C40.8203 12.5678 40.659 13.0199 40.3183 13.4721C39.9956 13.9054 39.5295 14.2822 38.9557 14.5836C38.382 14.8662 37.7186 15.0546 37.0015 15.1488L36.3919 15.9213L35.7823 16.6937C35.2086 17.4096 34.6886 18.0502 34.2045 18.6154C33.8101 19.0675 33.4694 19.4443 33.1467 19.7646C32.7702 20.1414 32.4296 20.4617 32.1248 20.7255C31.3718 21.3849 30.6367 21.9312 29.9374 22.3645C29.2023 22.8167 28.539 23.137 27.9294 23.363C27.3019 23.5891 26.6923 23.7022 26.1185 23.7022C25.3476 23.7022 24.738 23.4384 24.3077 22.892C23.8595 22.3457 23.6443 21.6109 23.6443 20.6689C23.6443 20.1414 23.6981 19.5951 23.8236 19.0487C23.1065 18.8791 22.5148 18.5589 22.0666 18.069C21.6004 17.598 21.3853 17.0517 21.3853 16.4676C21.3853 15.9589 21.5466 15.5068 21.8694 15.0735C22.1921 14.6402 22.6582 14.2634 23.2499 13.9619C24.1643 13.5098 25.258 13.2648 26.5309 13.2648H26.9254C26.9612 13.2648 27.0329 13.2648 27.0867 13.2648C27.1405 13.2648 27.1943 13.2837 27.2301 13.2837C27.7142 12.775 28.3059 12.2286 29.0051 11.6634C29.6506 11.1548 30.2781 10.7214 30.9235 10.3446C31.569 9.98669 32.1786 9.70409 32.7881 9.49685C33.4157 9.28961 33.9535 9.17657 34.4018 9.17657C35.2982 9.17657 35.854 9.53453 36.105 10.2693C36.7684 10.0244 37.4138 9.91132 38.0593 9.91132C38.9557 9.96784 39.7087 10.2504 40.2825 10.8156ZM26.9433 13.6416L27.015 13.5851C26.9791 13.5851 26.9433 13.5663 26.8895 13.5663C26.8357 13.5663 26.7819 13.5663 26.7281 13.5663H26.4054C25.491 13.5663 24.6663 13.6982 23.9491 13.9431C23.214 14.2068 22.6582 14.546 22.2459 14.9981C21.8335 15.4503 21.6363 15.9589 21.6363 16.5053C21.6363 17.0517 21.8335 17.5227 22.2279 17.9371C22.6224 18.3705 23.1782 18.6719 23.8774 18.8603C24.0209 18.3328 24.2539 17.7487 24.5767 17.0893C24.8814 16.4865 25.24 15.8459 25.6703 15.2242C26.0827 14.6402 26.4951 14.1126 26.9433 13.6416ZM36.105 15.8082L36.607 15.2242H36.5353C36.4277 15.243 36.3202 15.243 36.2126 15.243C35.5851 15.243 34.8858 15.1677 34.097 14.9981L34.0611 15.0546C33.6487 15.5068 33.2184 15.9401 32.7881 16.3357C32.3578 16.7314 31.9096 17.0705 31.4614 17.3908C31.0132 17.6922 30.5291 17.9937 30.0271 18.2574C28.5748 18.9922 27.0867 19.369 25.5986 19.369C25.0607 19.369 24.5946 19.3313 24.1822 19.2371C24.0029 19.953 23.9312 20.5182 23.9312 20.9139C23.9312 21.6863 24.1464 22.308 24.5587 22.7978C24.9711 23.2877 25.509 23.5326 26.1544 23.5326C26.7461 23.5326 27.3915 23.3819 28.1087 23.0804C28.79 22.8167 29.5251 22.4022 30.2781 21.837C31.049 21.2718 31.8917 20.4994 32.8419 19.5385C33.1109 19.2559 33.5591 18.7849 34.1687 18.1067C34.7783 17.4285 35.2803 16.8821 35.6747 16.4488L36.105 15.8082ZM27.6246 13.6416H27.5529L27.517 13.6982C26.9254 14.3764 26.4592 14.9416 26.1185 15.4126C25.8317 15.8271 25.491 16.3734 25.0966 17.0517C24.6663 17.8053 24.3615 18.4458 24.2181 18.9357C24.5946 19.011 25.0249 19.0675 25.5448 19.0675C26.2441 19.0675 26.9612 18.9733 27.6604 18.8038C28.3597 18.6342 29.0589 18.3705 29.7761 18.0313C30.4394 17.7111 31.1028 17.3154 31.7303 16.8633C32.322 16.4488 32.8957 15.9213 33.4874 15.3184L33.7742 15.017C33.7742 15.017 33.7922 14.9981 33.8101 14.9793C33.828 14.9604 33.828 14.9416 33.846 14.9228H33.7742C33.6846 14.9039 33.577 14.8662 33.4874 14.8474C33.4874 14.8474 33.4694 14.8474 33.4157 14.8286C33.3619 14.8097 33.3081 14.8097 33.2364 14.7909L31.7841 14.4706C31.4614 14.3764 31.0311 14.2634 30.4574 14.1315C29.9195 14.0184 29.5071 13.9242 29.2382 13.8677C28.7003 13.7547 28.1445 13.6793 27.6246 13.6416ZM27.8577 13.3214L27.7859 13.4156H27.8577C28.288 13.4721 28.8975 13.5663 29.7044 13.717C30.4215 13.8489 31.1566 14.0184 31.9096 14.2257L33.326 14.5648L33.9715 14.7155L34.0432 14.7344L34.079 14.659C34.6707 13.9431 35.1189 13.246 35.4416 12.5866C35.7644 11.9084 35.9257 11.3243 35.9257 10.8345C35.9257 10.778 35.9257 10.7214 35.9078 10.6461C35.352 10.8345 34.7603 11.1359 34.1508 11.5692C33.5591 12.0026 33.075 12.4547 32.6985 12.9446L32.5192 12.7562C32.7881 12.417 33.0929 12.1156 33.4157 11.833C33.7563 11.5316 34.1507 11.2678 34.5631 11.0229C34.9755 10.778 35.4237 10.5896 35.8719 10.42C35.6926 9.81713 35.2086 9.49685 34.4018 9.49685C33.7742 9.49685 33.1109 9.64757 32.3937 9.94901C31.6407 10.2693 30.8877 10.7026 30.1346 11.2678C29.3278 11.8518 28.5748 12.5301 27.8577 13.3214ZM40.1211 11.0794L40.157 11.0229C39.6729 10.4954 38.9557 10.2128 38.0234 10.2128C37.4855 10.2128 36.876 10.307 36.2126 10.5142L36.1409 10.533V10.7591C36.1409 11.2866 35.9795 11.9084 35.6747 12.5866C35.352 13.2648 34.9038 13.9808 34.3121 14.6967L34.2763 14.7532C34.3121 14.7532 34.3838 14.7532 34.4914 14.772C35.101 14.9039 35.6568 14.9604 36.1409 14.9604C36.4277 14.9604 36.6608 14.9416 36.8222 14.9228C36.876 14.8474 36.9297 14.7909 36.9477 14.7532L37.0911 14.6025C37.127 14.5648 37.1987 14.4894 37.2704 14.3764C37.3421 14.2634 37.4138 14.188 37.4676 14.1315C37.5752 13.9996 37.6648 13.8677 37.7724 13.7547C37.8621 13.6416 37.9876 13.5098 38.1131 13.3402C38.2744 13.133 38.5613 12.8127 38.9378 12.3605C39.1529 12.0968 39.3322 11.8895 39.4936 11.72L40.1211 11.0794ZM40.2287 15.5821C40.2108 15.5821 40.1928 15.601 40.1928 15.6198C40.1928 15.6387 40.157 15.6387 40.157 15.6575C40.1211 15.6952 39.906 15.8647 39.5115 16.185L38.5434 16.9951C37.9158 17.5415 37.3242 18.1255 36.7863 18.7096C36.2664 19.2748 35.8719 19.7646 35.5671 20.2168C35.2623 20.6689 35.1189 21.0646 35.1189 21.3849C35.1189 21.6675 35.2265 21.7993 35.4596 21.7993C35.7464 21.7993 36.105 21.6109 36.5174 21.253C36.9477 20.8762 37.378 20.4052 37.8262 19.8211C38.2565 19.2748 38.7047 18.5965 39.1529 17.8053C39.5832 17.0517 39.9418 16.2981 40.2287 15.5821ZM37.3421 14.8097L37.3063 14.8662C38.2924 14.7155 39.0812 14.3764 39.7087 13.8677C40.3183 13.359 40.6231 12.775 40.6231 12.1344C40.6231 11.8142 40.5156 11.4939 40.3183 11.1924L40.2825 11.2866C39.9956 11.6069 39.3502 12.3794 38.3103 13.6416L37.3421 14.8097Z" fill="white" stroke="white" stroke-width="0.5607" stroke-miterlimit="10"/>
<path d="M48.1533 1H4.40649V29.5425H48.1533V1Z" stroke="white" stroke-width="1.6" stroke-miterlimit="10"/>
</g>
</svg>
