<svg width="39" height="44" viewBox="0 0 39 44" fill="none" xmlns="http://www.w3.org/2000/svg">
<path d="M17.299 22.8064C17.8155 22.2901 18.5159 22 19.2463 22C19.9766 22 20.6771 22.2901 21.1936 22.8064L37.7194 39.3323C38.2211 39.8517 38.4987 40.5475 38.4925 41.2696C38.4862 41.9918 38.1965 42.6826 37.6859 43.1933C37.1752 43.704 36.4844 43.9936 35.7622 43.9999C35.04 44.0062 34.3443 43.7286 33.8248 43.2268L19.2463 28.6483L4.66775 43.2268C4.14828 43.7286 3.45254 44.0062 2.73037 43.9999C2.0082 43.9936 1.31739 43.704 0.806718 43.1933C0.296048 42.6826 0.00637958 41.9918 0.000104119 41.2696C-0.00617134 40.5475 0.271448 39.8517 0.773167 39.3323L17.299 22.8064Z" fill="#FFFCFC" fill-opacity="0.2"/>
<path d="M17.299 0.806423C17.8155 0.290071 18.5159 0 19.2463 0C19.9766 0 20.6771 0.290071 21.1936 0.806423L37.7194 17.3323C38.2211 17.8517 38.4987 18.5475 38.4925 19.2696C38.4862 19.9918 38.1965 20.6826 37.6859 21.1933C37.1752 21.704 36.4844 21.9936 35.7622 21.9999C35.04 22.0062 34.3443 21.7286 33.8248 21.2268L19.2463 6.6483L4.66775 21.2268C4.14828 21.7286 3.45254 22.0062 2.73037 21.9999C2.0082 21.9936 1.31739 21.704 0.806718 21.1933C0.296048 20.6826 0.00637958 19.9918 0.000104119 19.2696C-0.00617134 18.5475 0.271448 17.8517 0.773167 17.3323L17.299 0.806423Z" fill="#FFFCFC" fill-opacity="0.2"/>
</svg>
